<svg width="500" height="399" viewBox="0 0 500 399" fill="none" xmlns="http://www.w3.org/2000/svg">
<path d="M145 117.196C149.124 121.275 155.221 122.295 157.753 122.295L166.165 120.383L171.591 118.471L176.204 114.01L184.887 115.603L192.485 114.01L201.982 115.603L223.96 107L238.613 115.603L236.713 128.03L231.558 135.04L223.96 139.182V143.643L228.845 144.599L223.96 156.07L226.945 158.619L236.713 154.158L242.14 162.762V167.222L255.165 171.046L257.335 178.375L270.36 185.385L268.46 192.395L271.445 196.537L276.601 193.669L277.957 197.493L272.53 201.635V205.459L277.957 206.733V213.106L275.244 217.248L277.957 229.675L280.671 235.092L285.012 227.764L310.79 235.092L304.549 243.377L305.634 266L317.03 262.814V249.431L323 254.21" stroke="#FF0000"/>
</svg>
